<svg id="Layer_1" data-name="Layer 1" xmlns="http://www.w3.org/2000/svg" xmlns:xlink="http://www.w3.org/1999/xlink" viewBox="0 0 414.01 310.26"><defs><style>.cls-1{fill:#13131d;}.cls-2,.cls-8{fill:#3d1284;}.cls-3{fill:url(#linear-gradient);}.cls-4{fill:url(#linear-gradient-2);}.cls-5{fill:url(#linear-gradient-3);}.cls-6{fill:#db2422;}.cls-7{fill:#bbb8af;}.cls-8{font-size:26.98px;font-family:DINNextLTArabic-Medium, DIN Next LT Arabic;font-weight:500;}</style><linearGradient id="linear-gradient" x1="98.39" y1="48.51" x2="193.73" y2="48.51" gradientUnits="userSpaceOnUse"><stop offset="0" stop-color="#06072c"/><stop offset="1" stop-color="#3d1284"/></linearGradient><linearGradient id="linear-gradient-2" x1="158.82" y1="48.59" x2="254.17" y2="48.59" gradientUnits="userSpaceOnUse"><stop offset="0" stop-color="#0a0d43"/><stop offset="1" stop-color="#3d1284"/></linearGradient><linearGradient id="linear-gradient-3" x1="246.68" y1="49.08" x2="283" y2="48.13" gradientUnits="userSpaceOnUse"><stop offset="0" stop-color="#3d1284"/><stop offset="1" stop-color="#ef172f" stop-opacity="0"/></linearGradient></defs><rect class="cls-1" x="43.69" y="109.62" width="5.2" height="4.75" rx="0.45"/><path class="cls-1" d="M92.52,131.45h33.85a10.92,10.92,0,0,0,1.35-.09,6.69,6.69,0,0,0,1.39-.33,5.67,5.67,0,0,0,1.3-.7,4.12,4.12,0,0,0,1.07-1.16,6.81,6.81,0,0,0,3,2,12.63,12.63,0,0,0,4,.61,12.44,12.44,0,0,0,3.77-.54,7.2,7.2,0,0,0,2.91-1.71,7.71,7.71,0,0,0,1.89-3,13.05,13.05,0,0,0,.67-4.48,13.67,13.67,0,0,0-.7-4.67,7.83,7.83,0,0,0-1.92-3.09,7.39,7.39,0,0,0-2.94-1.7,12.13,12.13,0,0,0-3.68-.54,12.34,12.34,0,0,0-3.63.51,7.57,7.57,0,0,0-2.89,1.66,7.7,7.7,0,0,0-1.93,3,13.15,13.15,0,0,0-.74,4.42v.67a5.43,5.43,0,0,0,0,.67,6,6,0,0,1-.27,1.95,3.73,3.73,0,0,1-.68,1.26,2.26,2.26,0,0,1-.89.67,2.5,2.5,0,0,1-1,.2H59.75A4.69,4.69,0,0,1,57,126.3a2.39,2.39,0,0,1-1-2.07v-7.17c0-.3-.14-.45-.44-.45H51.41a.4.4,0,0,0-.45.45v13.32a5.52,5.52,0,0,1-1.59,4.41,6.16,6.16,0,0,1-4.15,1.37,8.24,8.24,0,0,1-2.11-.29,5.19,5.19,0,0,1-2-1A5.33,5.33,0,0,1,39.73,133a6.75,6.75,0,0,1-.56-2.93,10,10,0,0,1,.65-3.7,22.69,22.69,0,0,1,1.36-2.94.52.52,0,0,0,.07-.33c0-.11-.1-.19-.25-.25l-3.63-1.44c-.3-.2-.52-.18-.67.09a17.1,17.1,0,0,0-1.88,4.17,16.05,16.05,0,0,0-.77,4.85,11.4,11.4,0,0,0,.83,4.52,8.83,8.83,0,0,0,2.31,3.21,9.82,9.82,0,0,0,3.48,1.91,14.79,14.79,0,0,0,4.37.62,15.3,15.3,0,0,0,4.48-.62A9.48,9.48,0,0,0,53,138.2,8.34,8.34,0,0,0,55.24,135a11.87,11.87,0,0,0,.78-4.48V130a3.49,3.49,0,0,0,1.82,1.16,9.67,9.67,0,0,0,2.4.27H92.52Zm42.82-13.54a3.72,3.72,0,0,1,3.18-1.39q4.26,0,4.26,5.43a6.51,6.51,0,0,1-1,4.1,4.68,4.68,0,0,1-6.41,0,6.48,6.48,0,0,1-1-4.12A6.69,6.69,0,0,1,135.34,117.91Z"/><path class="cls-1" d="M157.76,104.37h9.5c.18,0,.27-.1.27-.31V102.4c0-.21-.09-.32-.27-.32h-4.52a3.51,3.51,0,0,1-1-1,2.59,2.59,0,0,1-.47-1.55,2.34,2.34,0,0,1,.58-1.63,2,2,0,0,1,1.62-.65,2.32,2.32,0,0,1,1.16.29,4.13,4.13,0,0,1,1,.74c.12.12.27.1.45,0l1.16-1.12c.09-.09.09-.22,0-.4a4.15,4.15,0,0,0-1.57-1.23,5,5,0,0,0-2.24-.48,5.12,5.12,0,0,0-2.19.43,4.37,4.37,0,0,0-1.48,1.08A3.78,3.78,0,0,0,159,98a5,5,0,0,0-.25,1.55,4.85,4.85,0,0,0,.2,1.41,4.8,4.8,0,0,0,.52,1.14h-1.66c-.18,0-.27.11-.27.32v1.66C157.49,104.27,157.58,104.37,157.76,104.37Z"/><path class="cls-1" d="M152.11,131.45h19.68c1.89,0,3.23-.45,4-1.37A6.36,6.36,0,0,0,177,125.8V101.41a.4.4,0,0,0-.45-.45h-4.17a.4.4,0,0,0-.45.45v23.23a2.65,2.65,0,0,1-.51,1.86,2.27,2.27,0,0,1-1.64.51h-4.66V107.73a.39.39,0,0,0-.45-.44h-4.17a.39.39,0,0,0-.45.44V127h-8a.4.4,0,0,0-.45.45V131A.4.4,0,0,0,152.11,131.45Z"/><rect class="cls-1" x="182.87" y="100.96" width="5.07" height="30.49" rx="0.45"/><path class="cls-1" d="M214.48,137.15h10.44a14.25,14.25,0,0,0,4.08-.52,7.51,7.51,0,0,0,2.78-1.43,5.62,5.62,0,0,0,1.57-2.13,6.71,6.71,0,0,0,.5-2.56,4.91,4.91,0,0,0-.77-2.71,10.28,10.28,0,0,0-1.9-2.2,23.72,23.72,0,0,0-2.47-1.9c-.88-.6-1.7-1.18-2.46-1.75a11.32,11.32,0,0,1-1.91-1.75,3,3,0,0,1-.76-2,2.79,2.79,0,0,1,1.19-2.45,4.62,4.62,0,0,1,2.71-.83,5.94,5.94,0,0,1,2.64.52,7.24,7.24,0,0,1,2,1.46.42.42,0,0,0,.63,0l2.42-2.38c.27-.21.32-.41.14-.62a10.22,10.22,0,0,0-3.17-2.54,10.84,10.84,0,0,0-4.95-1,10.35,10.35,0,0,0-3.63.6,8.43,8.43,0,0,0-2.76,1.66,7.58,7.58,0,0,0-1.77,2.47,7.34,7.34,0,0,0-.63,3,6.58,6.58,0,0,0,.74,3.16,9.93,9.93,0,0,0,1.88,2.46,16.13,16.13,0,0,0,2.45,2l2.44,1.59a16,16,0,0,1,1.89,1.42,1.88,1.88,0,0,1,.74,1.34,2.08,2.08,0,0,1-1,1.73,6.51,6.51,0,0,1-3.56.69H215.1a12.14,12.14,0,0,1-2.55-.27,6,6,0,0,1-2.24-.94,5.17,5.17,0,0,1-1.62-1.81,5.86,5.86,0,0,1-.63-2.85,10.23,10.23,0,0,1,.65-3.7,22.66,22.66,0,0,1,1.37-2.94.6.6,0,0,0,.07-.33c0-.11-.1-.19-.25-.25l-3.63-1.43c-.3-.21-.52-.18-.67.09a16.76,16.76,0,0,0-1.88,4.17,15.94,15.94,0,0,0-.77,4.84,9.58,9.58,0,0,0,2.85,7.31Q208.65,137.14,214.48,137.15Z"/><rect class="cls-1" x="219.36" y="140.06" width="4.66" height="4.75" rx="0.45"/><rect class="cls-1" x="213.53" y="140.06" width="4.66" height="4.75" rx="0.45"/><rect class="cls-1" x="375.3" y="103.61" width="4.66" height="4.75" rx="0.45"/><rect class="cls-1" x="369.48" y="103.61" width="4.66" height="4.75" rx="0.45"/><path class="cls-1" d="M377.28,125.8V113.29c0-.3-.15-.44-.45-.44h-4.17c-.3,0-.45.14-.45.44v11.35a2.6,2.6,0,0,1-.52,1.86,2.24,2.24,0,0,1-1.63.51h-3.68a4.5,4.5,0,0,1-2.62-.67,2.55,2.55,0,0,1-1.1-1.88c0-.18,0-.36,0-.54a5.34,5.34,0,0,0,0-.58,17.78,17.78,0,0,0-.51-4.33,9.45,9.45,0,0,0-1.73-3.59,8.35,8.35,0,0,0-3.23-2.46,12,12,0,0,0-5-.92,9.87,9.87,0,0,0-4.71,1,11.78,11.78,0,0,0-3.31,2.6q-.27.27.09.63l2.33,2.42a.42.42,0,0,0,.63,0,7.4,7.4,0,0,1,2.15-1.57,6.24,6.24,0,0,1,2.69-.58,5.45,5.45,0,0,1,2.53.52,4.4,4.4,0,0,1,1.64,1.41,5.66,5.66,0,0,1,.89,2.11,12.1,12.1,0,0,1,.27,2.64,10.39,10.39,0,0,1-.13,1.82,2.39,2.39,0,0,1-.54,1.19,2.08,2.08,0,0,1-1.12.62,8,8,0,0,1-1.88.18h-93.4a4.56,4.56,0,0,1-2.69-.71,2.37,2.37,0,0,1-1-2v-4.22c0-2.84-.74-4.88-2.22-6.14a9,9,0,0,0-6-1.88h-6.81a.4.4,0,0,0-.45.45v3.58a.4.4,0,0,0,.45.45H247a5.36,5.36,0,0,1,3.43.94,3.69,3.69,0,0,1,1.14,3v3a10.94,10.94,0,0,1-.11,1.66,2.19,2.19,0,0,1-.49,1.1,2.09,2.09,0,0,1-1.1.6A8.25,8.25,0,0,1,248,127h-8.34a.4.4,0,0,0-.45.45V131a.4.4,0,0,0,.45.45h10a11.54,11.54,0,0,0,3.75-.51,4.31,4.31,0,0,0,2.31-2,3.79,3.79,0,0,0,2.13,2.06,9.54,9.54,0,0,0,3.25.49h94.56a10.34,10.34,0,0,0,3.65-.56,4.4,4.4,0,0,0,2.35-2.08,3.82,3.82,0,0,0,2.18,2.15,10,10,0,0,0,3.29.49H372c1.88,0,3.23-.45,4-1.37A6.36,6.36,0,0,0,377.28,125.8Z"/><rect class="cls-1" x="48.16" y="183.61" width="4.66" height="4.75" rx="0.45"/><rect class="cls-1" x="42.33" y="183.61" width="4.66" height="4.75" rx="0.45"/><rect class="cls-1" x="83.23" y="151.46" width="5.2" height="4.75" rx="0.45"/><rect class="cls-1" x="93.5" y="148.82" width="5.07" height="30.49" rx="0.45"/><rect class="cls-1" x="273.61" y="183.07" width="5.2" height="4.75" rx="0.45"/><rect class="cls-1" x="290.65" y="183.16" width="4.66" height="4.75" rx="0.45"/><rect class="cls-1" x="296.48" y="183.16" width="4.66" height="4.75" rx="0.45"/><path class="cls-1" d="M366.2,148.82H362a.4.4,0,0,0-.45.45v23.22a2.62,2.62,0,0,1-.51,1.86,2.23,2.23,0,0,1-1.64.52H345.71a4.58,4.58,0,0,1-2.71-.72,2.38,2.38,0,0,1-1-2.06V161.15a.4.4,0,0,0-.45-.45h-4.17a.4.4,0,0,0-.45.45v9.33c0,.92,0,1.68-.09,2.26a2.83,2.83,0,0,1-.42,1.34,1.6,1.6,0,0,1-1,.63,6.69,6.69,0,0,1-1.65.16,3.64,3.64,0,0,1-2.25-.65,2.41,2.41,0,0,1-.85-2v-7.49a.4.4,0,0,0-.45-.45h-4.17c-.3,0-.44.15-.44.45v5.74c0,1,0,1.72-.07,2.29a3,3,0,0,1-.38,1.34,1.48,1.48,0,0,1-1,.65,7.51,7.51,0,0,1-1.77.16,3.42,3.42,0,0,1-2.35-.67,2.7,2.7,0,0,1-.74-2.11v-7.4a.4.4,0,0,0-.45-.45h-4.17a.4.4,0,0,0-.45.45v5.74c0,.81,0,1.49,0,2a4.29,4.29,0,0,1-.23,1.37,1.41,1.41,0,0,1-.62.78,2.47,2.47,0,0,1-1.24.25h-9.73a4.58,4.58,0,0,1-2.71-.72,2.38,2.38,0,0,1-1-2.06V161.15a.4.4,0,0,0-.45-.45h-3.85a1.54,1.54,0,0,0-.52.09.35.35,0,0,0-.24.36v9.33c0,.8,0,1.48-.05,2a4.54,4.54,0,0,1-.24,1.34,1.5,1.5,0,0,1-.63.76,2.47,2.47,0,0,1-1.24.25h-9.05a4.56,4.56,0,0,1-2.71-.72,2.35,2.35,0,0,1-1-2.06V161.15a.4.4,0,0,0-.45-.45h-4.17a.4.4,0,0,0-.45.45v9.5c0,.78,0,1.44-.05,2a4.25,4.25,0,0,1-.24,1.3,1.35,1.35,0,0,1-.65.72,2.87,2.87,0,0,1-1.21.22H115.29a4.61,4.61,0,0,1-2.72-.72,2.38,2.38,0,0,1-1-2.06V161.15a.39.39,0,0,0-.44-.45H107a.4.4,0,0,0-.45.45v16c0,1.07,0,2-.07,2.84a7,7,0,0,1-.4,2.11,2.65,2.65,0,0,1-1.06,1.32,3.79,3.79,0,0,1-2,.45h-1a.4.4,0,0,0-.45.45v3.59a.4.4,0,0,0,.45.45h1.66a10.28,10.28,0,0,0,3.76-.61,5.57,5.57,0,0,0,2.45-1.82,7.68,7.68,0,0,0,1.32-3,19.71,19.71,0,0,0,.4-4.24v-.85a3.38,3.38,0,0,0,1.87,1.21,11.05,11.05,0,0,0,2.62.27h156.8a9.32,9.32,0,0,0,3.39-.5A3.42,3.42,0,0,0,278.1,177a3.57,3.57,0,0,0,2.06,1.86,9.36,9.36,0,0,0,2.63.41l.2,0h9.77a9.72,9.72,0,0,0,3.43-.5A3.41,3.41,0,0,0,298.1,177a3.55,3.55,0,0,0,2.06,1.86,9.59,9.59,0,0,0,3,.43h10.53a7.87,7.87,0,0,0,3.21-.54,3.7,3.7,0,0,0,1.82-1.84q1.16,2.38,4.34,2.38h2a8.06,8.06,0,0,0,3.2-.52,3.6,3.6,0,0,0,1.82-1.81,4.1,4.1,0,0,0,1.68,1.72,5.38,5.38,0,0,0,2.67.61h1.93a8.06,8.06,0,0,0,3.2-.52,3.6,3.6,0,0,0,1.82-1.77,3.6,3.6,0,0,0,2,1.86,9.4,9.4,0,0,0,3,.43H361.4a5.17,5.17,0,0,0,4-1.37,6.32,6.32,0,0,0,1.21-4.28V149.27A.4.4,0,0,0,366.2,148.82Z"/><rect class="cls-1" x="372.48" y="148.82" width="5.07" height="30.49" rx="0.45"/><path class="cls-1" d="M73,179.06a5.87,5.87,0,0,1-4.74-1.89A7.78,7.78,0,0,1,66.58,172V159.81H64.9c-4,0-6.11,1.95-6.11,5.64v13.61H43.16c-3.15,0-5.48-.81-6.92-2.42a9,9,0,0,1-2.19-6.18v-9.85h4.63v9c0,3.66,2.12,5.6,6.11,5.6h9.37V164.6a9,9,0,0,1,2.19-6.2c1.44-1.62,3.77-2.44,6.92-2.44h7.94v15.16a4.53,4.53,0,0,0,.86,3.12,3.26,3.26,0,0,0,2.53,1h9.68v-14.6h4.59v18.45Z"/><path class="cls-2" d="M37.36,214.16c0-.31.07-.57.11-.77l.15-.59A3.76,3.76,0,0,1,38.8,211a3.27,3.27,0,0,1,2.12-.65,3.17,3.17,0,0,1,2.18.7,5,5,0,0,1,1.26,1.68c.07.18.19.23.35.14L47,211.77a.23.23,0,0,0,.13-.33,6.31,6.31,0,0,0-2.4-2.89,6.77,6.77,0,0,0-3.83-1.06,7,7,0,0,0-4,1.12,6.13,6.13,0,0,0-2.37,3.4c-.09.29-.16.57-.23.85a7.68,7.68,0,0,0-.14,1c0,.37-.07.81-.09,1.31s0,1.12,0,1.84,0,1.36,0,1.86,0,.93.09,1.3a7.5,7.5,0,0,0,.14,1c.07.28.14.57.23.85a6.1,6.1,0,0,0,2.37,3.4,7,7,0,0,0,4,1.13,6.85,6.85,0,0,0,3.83-1.06,6.28,6.28,0,0,0,2.4-2.9.22.22,0,0,0-.13-.32l-2.31-1.11a.22.22,0,0,0-.35.13,5,5,0,0,1-1.26,1.68,3.18,3.18,0,0,1-2.18.71A3.27,3.27,0,0,1,38.8,223a3.81,3.81,0,0,1-1.18-1.79c0-.18-.1-.38-.15-.58s-.08-.47-.11-.79,0-.69,0-1.14,0-1,0-1.69,0-1.22,0-1.68S37.34,214.48,37.36,214.16Z"/><path class="cls-2" d="M62.1,207.79H59.47a.38.38,0,0,0-.38.27l-3.63,7.15h-.08l-3.6-7.15a.38.38,0,0,0-.38-.27H48.67c-.22,0-.29.09-.22.27l5.33,10.61v7.26a.24.24,0,0,0,.27.27h2.66a.24.24,0,0,0,.27-.27v-7.26l5.33-10.61Q62.42,207.79,62.1,207.79Z"/><path class="cls-2" d="M77,218a3.74,3.74,0,0,0-.78-.88,3.08,3.08,0,0,0-.87-.52v0a4.15,4.15,0,0,0,1.5-1.4,4.31,4.31,0,0,0,.64-2.5,4.68,4.68,0,0,0-1.41-3.56,6.06,6.06,0,0,0-4.33-1.34H64.94a.24.24,0,0,0-.27.27v17.87a.24.24,0,0,0,.27.27h6.58a7.27,7.27,0,0,0,4.68-1.33,4.93,4.93,0,0,0,1.65-4.09A4.87,4.87,0,0,0,77,218Zm-9.18-7.27a.15.15,0,0,1,.17-.17h3.68a2.66,2.66,0,0,1,1.92.67,2.56,2.56,0,0,1,0,3.52,2.7,2.7,0,0,1-1.92.66H68c-.11,0-.17,0-.17-.16Zm6.08,11.91a2.84,2.84,0,0,1-2.07.7H68c-.11,0-.17,0-.17-.16v-4.79c0-.11.06-.16.17-.16h3.84a2.84,2.84,0,0,1,2.07.7,2.46,2.46,0,0,1,.72,1.84A2.49,2.49,0,0,1,73.94,222.68Z"/><path class="cls-2" d="M92.91,207.79H81.37a.24.24,0,0,0-.27.27v17.87a.24.24,0,0,0,.27.27H92.91a.24.24,0,0,0,.27-.27V223.6a.24.24,0,0,0-.27-.27H84.46a.14.14,0,0,1-.16-.16v-4.66a.14.14,0,0,1,.16-.16h7.12a.24.24,0,0,0,.27-.27v-2.33a.24.24,0,0,0-.27-.27H84.46c-.11,0-.16-.06-.16-.17v-4.49a.14.14,0,0,1,.16-.16h8.45a.24.24,0,0,0,.27-.27v-2.33A.24.24,0,0,0,92.91,207.79Z"/><path class="cls-2" d="M106.31,218.35a5.34,5.34,0,0,0,2.54-1.93,5.26,5.26,0,0,0,1-3.14,5.45,5.45,0,0,0-.45-2.23,4.88,4.88,0,0,0-1.23-1.73,5.68,5.68,0,0,0-1.85-1.13,6.61,6.61,0,0,0-2.34-.4H96.8a.24.24,0,0,0-.27.27v17.87a.24.24,0,0,0,.27.27h2.66a.24.24,0,0,0,.27-.27v-7c0-.11,0-.17.16-.17h3.17l3.52,7.18a.4.4,0,0,0,.4.27h3a.22.22,0,0,0,.2-.11.21.21,0,0,0,0-.24Zm-2.49-2.47H99.89a.14.14,0,0,1-.16-.16v-4.9a.14.14,0,0,1,.16-.16h3.93a2.89,2.89,0,0,1,2,.7,2.45,2.45,0,0,1,.77,1.92,2.42,2.42,0,0,1-.77,1.9A2.89,2.89,0,0,1,103.82,215.88Z"/><path class="cls-2" d="M120.52,215.45l-1-.14a5.46,5.46,0,0,1-2.63-.9,2,2,0,0,1-.76-1.59,2.3,2.3,0,0,1,.75-1.77,3,3,0,0,1,2.15-.69,7.07,7.07,0,0,1,2.22.35,10.54,10.54,0,0,1,2.19,1.08.25.25,0,0,0,.38-.08l1.3-2a.27.27,0,0,0-.05-.38,8.8,8.8,0,0,0-2.67-1.34,10.78,10.78,0,0,0-3.29-.5,8,8,0,0,0-2.58.39,5.53,5.53,0,0,0-2,1.13,4.81,4.81,0,0,0-1.24,1.76,5.74,5.74,0,0,0-.44,2.27,4.58,4.58,0,0,0,1.44,3.59,7.69,7.69,0,0,0,4.11,1.66l1,.14a5.25,5.25,0,0,1,2.62.9,2.1,2.1,0,0,1,.74,1.64,2.36,2.36,0,0,1-.91,1.91,3.93,3.93,0,0,1-2.56.75,6,6,0,0,1-1.49-.18,9.58,9.58,0,0,1-1.34-.45,7.88,7.88,0,0,1-1.19-.62,10.6,10.6,0,0,1-1-.7c-.12-.13-.25-.12-.38,0l-1.68,2a.28.28,0,0,0,.06.41,7.77,7.77,0,0,0,1.28,1,9.06,9.06,0,0,0,1.63.77,11.68,11.68,0,0,0,1.85.52,11,11,0,0,0,2,.19,9.43,9.43,0,0,0,3-.44,6.33,6.33,0,0,0,2.18-1.19,4.59,4.59,0,0,0,1.31-1.81,5.94,5.94,0,0,0,.44-2.28,4.73,4.73,0,0,0-1.41-3.67A7.52,7.52,0,0,0,120.52,215.45Z"/><path class="cls-2" d="M141,207.79H129.46a.24.24,0,0,0-.27.27v17.87a.24.24,0,0,0,.27.27H141a.24.24,0,0,0,.27-.27V223.6a.24.24,0,0,0-.27-.27h-8.45a.14.14,0,0,1-.16-.16v-4.66a.14.14,0,0,1,.16-.16h7.12a.24.24,0,0,0,.27-.27v-2.33a.24.24,0,0,0-.27-.27h-7.12c-.11,0-.16-.06-.16-.17v-4.49a.14.14,0,0,1,.16-.16H141a.24.24,0,0,0,.27-.27v-2.33A.24.24,0,0,0,141,207.79Z"/><path class="cls-2" d="M147.39,214.16c0-.31.07-.57.11-.77l.15-.59a3.69,3.69,0,0,1,1.18-1.79,3.27,3.27,0,0,1,2.12-.65,3.17,3.17,0,0,1,2.18.7,5.23,5.23,0,0,1,1.26,1.68c.07.18.19.23.35.14l2.3-1.11c.15-.06.19-.16.14-.33a6.31,6.31,0,0,0-2.4-2.89,6.77,6.77,0,0,0-3.83-1.06,7,7,0,0,0-4,1.12,6.13,6.13,0,0,0-2.37,3.4c-.09.29-.16.57-.23.85a9.78,9.78,0,0,0-.15,1c0,.37-.06.81-.08,1.31s0,1.12,0,1.84,0,1.36,0,1.86.05.93.08,1.3a9.55,9.55,0,0,0,.15,1c.07.28.14.57.23.85a6.1,6.1,0,0,0,2.37,3.4,7,7,0,0,0,4,1.13,6.85,6.85,0,0,0,3.83-1.06,6.28,6.28,0,0,0,2.4-2.9c0-.16,0-.27-.14-.32l-2.3-1.11a.22.22,0,0,0-.35.13,5.23,5.23,0,0,1-1.26,1.68,3.18,3.18,0,0,1-2.18.71,3.27,3.27,0,0,1-2.12-.65,3.74,3.74,0,0,1-1.18-1.79c-.05-.18-.1-.38-.15-.58s-.08-.47-.11-.79,0-.69,0-1.14,0-1,0-1.69,0-1.22,0-1.68S147.37,214.48,147.39,214.16Z"/><path class="cls-2" d="M173.37,207.79h-2.65a.24.24,0,0,0-.27.27v11.61a4,4,0,0,1-1,2.94,3.79,3.79,0,0,1-5.17,0,4,4,0,0,1-1-2.94V208.06a.24.24,0,0,0-.27-.27h-2.65a.24.24,0,0,0-.27.27v11.67a7.54,7.54,0,0,0,.51,2.85,6.12,6.12,0,0,0,1.42,2.13,6.28,6.28,0,0,0,2.14,1.33,7.8,7.8,0,0,0,2.7.46,7.89,7.89,0,0,0,2.7-.46,6,6,0,0,0,3.58-3.46,7.54,7.54,0,0,0,.51-2.85V208.06A.24.24,0,0,0,173.37,207.79Z"/><path class="cls-2" d="M187.37,218.35a5.34,5.34,0,0,0,2.54-1.93,5.26,5.26,0,0,0,1-3.14,5.45,5.45,0,0,0-.45-2.23,5,5,0,0,0-1.23-1.73,5.68,5.68,0,0,0-1.85-1.13,6.63,6.63,0,0,0-2.35-.4h-7.12a.24.24,0,0,0-.27.27v17.87a.24.24,0,0,0,.27.27h2.66a.24.24,0,0,0,.27-.27v-7c0-.11.05-.17.16-.17h3.17l3.52,7.18a.4.4,0,0,0,.4.27h3a.22.22,0,0,0,.2-.11.21.21,0,0,0,0-.24Zm-2.49-2.47H181a.14.14,0,0,1-.16-.16v-4.9a.14.14,0,0,1,.16-.16h3.93a2.91,2.91,0,0,1,2,.7,2.45,2.45,0,0,1,.77,1.92,2.42,2.42,0,0,1-.77,1.9A2.91,2.91,0,0,1,184.88,215.88Z"/><rect class="cls-2" x="194.35" y="207.79" width="3.19" height="18.41" rx="0.27"/><path class="cls-2" d="M213.6,207.79H200.44a.24.24,0,0,0-.27.27v2.33a.24.24,0,0,0,.27.27h4.82c.11,0,.17.05.17.16v15.11a.24.24,0,0,0,.27.27h2.65a.24.24,0,0,0,.27-.27V210.82a.14.14,0,0,1,.16-.16h4.82a.24.24,0,0,0,.27-.27v-2.33A.24.24,0,0,0,213.6,207.79Z"/><path class="cls-2" d="M228.44,207.79h-2.63a.38.38,0,0,0-.38.27l-3.63,7.15h-.08l-3.6-7.15a.38.38,0,0,0-.38-.27H215c-.22,0-.29.09-.22.27l5.34,10.61v7.26a.24.24,0,0,0,.27.27h2.65a.24.24,0,0,0,.27-.27v-7.26l5.33-10.61C228.73,207.88,228.65,207.79,228.44,207.79Z"/><path class="cls-2" d="M239.58,214.16a5.65,5.65,0,0,1,.11-.77c0-.2.09-.39.15-.59A3.74,3.74,0,0,1,241,211a3.32,3.32,0,0,1,2.13-.65,3.17,3.17,0,0,1,2.18.7,5.23,5.23,0,0,1,1.26,1.68c.07.18.19.23.35.14l2.3-1.11c.15-.06.19-.16.14-.33a6.43,6.43,0,0,0-2.4-2.89,6.77,6.77,0,0,0-3.83-1.06,7,7,0,0,0-4,1.12,6.13,6.13,0,0,0-2.37,3.4c-.09.29-.17.57-.23.85a9.78,9.78,0,0,0-.15,1c0,.37-.06.81-.08,1.31s0,1.12,0,1.84,0,1.36,0,1.86,0,.93.08,1.3a9.55,9.55,0,0,0,.15,1c.06.28.14.57.23.85a6.1,6.1,0,0,0,2.37,3.4,7,7,0,0,0,4,1.13,6.85,6.85,0,0,0,3.83-1.06,6.41,6.41,0,0,0,2.4-2.9c0-.16,0-.27-.14-.32l-2.3-1.11a.22.22,0,0,0-.35.13,5.23,5.23,0,0,1-1.26,1.68,3.18,3.18,0,0,1-2.18.71A3.32,3.32,0,0,1,241,223a3.79,3.79,0,0,1-1.17-1.79,4.91,4.91,0,0,1-.15-.58,6,6,0,0,1-.11-.79c0-.31-.05-.69-.05-1.14s0-1,0-1.69,0-1.22,0-1.68S239.55,214.48,239.58,214.16Z"/><path class="cls-2" d="M265.83,207.79h-2.66a.24.24,0,0,0-.27.27v7.25c0,.11,0,.17-.16.17h-7c-.11,0-.16-.06-.16-.17v-7.25a.24.24,0,0,0-.27-.27h-2.66a.24.24,0,0,0-.27.27v17.87a.24.24,0,0,0,.27.27h2.66a.24.24,0,0,0,.27-.27v-7.42a.14.14,0,0,1,.16-.16h7a.14.14,0,0,1,.16.16v7.42a.24.24,0,0,0,.27.27h2.66a.24.24,0,0,0,.27-.27V208.06A.24.24,0,0,0,265.83,207.79Z"/><path class="cls-2" d="M278.12,208.06a.34.34,0,0,0-.35-.27h-2.49a.35.35,0,0,0-.36.27l-6.3,17.87c-.06.18,0,.27.19.27h2.62a.34.34,0,0,0,.35-.27l1.22-3.58h6.93l1.22,3.58a.34.34,0,0,0,.35.27h2.66c.18,0,.24-.09.19-.27ZM274,219.51l2.46-7.15h.08l2.44,7.15Z"/><path class="cls-2" d="M298.67,223.33h-8.45a.14.14,0,0,1-.16-.16V208.06a.24.24,0,0,0-.27-.27h-2.66a.24.24,0,0,0-.27.27v17.87a.24.24,0,0,0,.27.27h11.54a.24.24,0,0,0,.27-.27V223.6A.24.24,0,0,0,298.67,223.33Z"/><path class="cls-2" d="M313.42,223.33H305a.15.15,0,0,1-.17-.16V208.06a.24.24,0,0,0-.27-.27h-2.65a.24.24,0,0,0-.27.27v17.87a.24.24,0,0,0,.27.27h11.53a.24.24,0,0,0,.27-.27V223.6A.24.24,0,0,0,313.42,223.33Z"/><path class="cls-2" d="M328.18,207.79H316.65a.25.25,0,0,0-.28.27v17.87a.25.25,0,0,0,.28.27h11.53a.24.24,0,0,0,.27-.27V223.6a.24.24,0,0,0-.27-.27h-8.45a.14.14,0,0,1-.16-.16v-4.66a.14.14,0,0,1,.16-.16h7.12a.24.24,0,0,0,.27-.27v-2.33a.24.24,0,0,0-.27-.27h-7.12c-.11,0-.16-.06-.16-.17v-4.49a.14.14,0,0,1,.16-.16h8.45a.24.24,0,0,0,.27-.27v-2.33A.24.24,0,0,0,328.18,207.79Z"/><path class="cls-2" d="M345.26,207.79h-2.35a.24.24,0,0,0-.27.27v12.7h-.11l-7.5-12.7a.51.51,0,0,0-.46-.27h-2.49a.24.24,0,0,0-.27.27v17.87a.24.24,0,0,0,.27.27h2.35a.24.24,0,0,0,.27-.27V213.26h.11l7.53,12.67a.51.51,0,0,0,.46.27h2.46a.24.24,0,0,0,.27-.27V208.06A.24.24,0,0,0,345.26,207.79Z"/><path class="cls-2" d="M362.78,216.07h-6.09a.24.24,0,0,0-.27.27v2.17a.24.24,0,0,0,.27.27h3a.14.14,0,0,1,.16.16,9.19,9.19,0,0,1-.08,1.37,5.74,5.74,0,0,1-.21,1,3.1,3.1,0,0,1-1.33,1.72,4,4,0,0,1-2.17.59,3.63,3.63,0,0,1-2.24-.64,3.56,3.56,0,0,1-1.22-1.77,3.92,3.92,0,0,1-.15-.57,6.65,6.65,0,0,1-.11-.81c0-.33,0-.72-.05-1.18s0-1,0-1.67,0-1.2,0-1.66,0-.86.05-1.18a6.38,6.38,0,0,1,.11-.81,3.34,3.34,0,0,1,.15-.57,3.52,3.52,0,0,1,1.22-1.77,3.57,3.57,0,0,1,2.24-.64,3.85,3.85,0,0,1,2.22.58,4.77,4.77,0,0,1,1.49,1.69.26.26,0,0,0,.35.14l2.28-1a.28.28,0,0,0,.11-.38,6.3,6.3,0,0,0-.84-1.48,5.41,5.41,0,0,0-1.36-1.24,7.22,7.22,0,0,0-1.86-.85,7.92,7.92,0,0,0-2.36-.33,7.42,7.42,0,0,0-4.17,1.12,6,6,0,0,0-2.41,3.32c-.09.29-.17.58-.23.87s-.11.62-.15,1-.06.82-.08,1.34,0,1.13,0,1.85,0,1.34,0,1.86.05,1,.08,1.34.09.71.15,1,.14.58.23.87a6,6,0,0,0,2.41,3.31,7.42,7.42,0,0,0,4.17,1.13,7.1,7.1,0,0,0,4.1-1.18,6.11,6.11,0,0,0,2.4-3.35,9.36,9.36,0,0,0,.32-1.8c.07-.73.11-1.47.11-2.23v-1.6A.24.24,0,0,0,362.78,216.07Z"/><path class="cls-2" d="M369.93,210.66h8.45a.24.24,0,0,0,.27-.27v-2.33a.24.24,0,0,0-.27-.27H366.84a.24.24,0,0,0-.27.27v17.87a.24.24,0,0,0,.27.27h11.54a.24.24,0,0,0,.27-.27V223.6a.24.24,0,0,0-.27-.27h-8.45a.14.14,0,0,1-.16-.16v-4.66a.14.14,0,0,1,.16-.16h7.12a.24.24,0,0,0,.27-.27v-2.33a.24.24,0,0,0-.27-.27h-7.12c-.11,0-.16-.06-.16-.17v-4.49A.14.14,0,0,1,369.93,210.66Z"/><path class="cls-3" d="M188.73,36.3c-7.2-7.24-16.91-7.14-25.54.25a25.7,25.7,0,0,1-34.26,0c-8.63-7.39-18.34-7.49-25.54-.25a17.59,17.59,0,0,0-.27,24.29c6.78,7.22,17.25,7.33,25.57.26a29.36,29.36,0,0,1,17.37-7,29.36,29.36,0,0,1,17.37,7c8.32,7.07,18.78,7,25.57-.26A17.6,17.6,0,0,0,188.73,36.3Z"/><path class="cls-4" d="M249.16,36.38c-7.19-7.23-16.9-7.14-25.53.26a25.75,25.75,0,0,1-34.27,0c-8.63-7.4-18.34-7.49-25.53-.26a17.59,17.59,0,0,0-.27,24.3c6.78,7.22,17.25,7.32,25.57.26a29.25,29.25,0,0,1,17.37-7,29.3,29.3,0,0,1,17.37,7c8.31,7.06,18.78,7,25.56-.26A17.59,17.59,0,0,0,249.16,36.38Z"/><path class="cls-5" d="M309.71,36.34c-7.19-7.24-16.9-7.14-25.53.25a25.72,25.72,0,0,1-34.27,0c-8.62-7.39-18.34-7.49-25.53-.25a17.58,17.58,0,0,0-.27,24.29c6.78,7.22,17.25,7.33,25.57.26a29.31,29.31,0,0,1,17.37-7,29.36,29.36,0,0,1,17.37,7c8.32,7.07,18.78,7,25.56-.26A17.58,17.58,0,0,0,309.71,36.34Z"/><circle class="cls-6" cx="297.67" cy="48.88" r="17.96"/><path class="cls-7" d="M380,262.78H255.07a.91.91,0,1,1,0-1.81H380a.91.91,0,0,1,0,1.81Z"/><path class="cls-7" d="M159,262.78H34.05a.91.91,0,1,1,0-1.81H159a.91.91,0,0,1,0,1.81Z"/><text class="cls-8" transform="translate(177.44 267.28)">2021</text></svg>