<svg xmlns="http://www.w3.org/2000/svg" xmlns:xlink="http://www.w3.org/1999/xlink" viewBox="0 0 700 328.2"><defs><style>.cls-1{fill:url(#linear-gradient);}.cls-2{fill:url(#linear-gradient-2);}.cls-3{fill:url(#linear-gradient-3);}.cls-4{fill:url(#linear-gradient-4);}.cls-5{fill:url(#linear-gradient-5);}.cls-6{fill:url(#linear-gradient-6);}.cls-7{fill:url(#linear-gradient-7);}.cls-8{fill:url(#linear-gradient-8);}.cls-9{fill:#1b1464;}</style><linearGradient id="linear-gradient" x1="130.96" y1="89.28" x2="9.9" y2="187.28" gradientTransform="translate(719.5 269) rotate(180)" gradientUnits="userSpaceOnUse"><stop offset="0" stop-color="#9221f9"/><stop offset="1" stop-color="#1c0245"/></linearGradient><linearGradient id="linear-gradient-2" x1="71.55" y1="188.18" x2="83.08" y2="91.23" xlink:href="#linear-gradient"/><linearGradient id="linear-gradient-3" x1="76.11" y1="241.71" x2="60.91" y2="154.72" xlink:href="#linear-gradient"/><linearGradient id="linear-gradient-4" x1="48.6" y1="162.34" x2="109.91" y2="252.47" xlink:href="#linear-gradient"/><linearGradient id="linear-gradient-5" x1="619.56" y1="2.9" x2="522.22" y2="74.17" gradientUnits="userSpaceOnUse"><stop offset="0.14" stop-color="#41c8bc"/><stop offset="1" stop-color="#1e008c"/></linearGradient><linearGradient id="linear-gradient-6" x1="562.07" y1="96.32" x2="573.6" y2="-0.63" xlink:href="#linear-gradient-5"/><linearGradient id="linear-gradient-7" x1="566.63" y1="149.85" x2="551.43" y2="62.86" xlink:href="#linear-gradient-5"/><linearGradient id="linear-gradient-8" x1="539.11" y1="70.48" x2="600.43" y2="160.61" xlink:href="#linear-gradient-5"/></defs><g id="Layer_2" data-name="Layer 2"><g id="Layer_1-2" data-name="Layer 1"><path d="M29.3,282.6a4.5,4.5,0,0,0,3.3-1.4A4.5,4.5,0,0,0,34,278a4.8,4.8,0,0,0-4.7-4.7,4.5,4.5,0,0,0-3.2,1.4,4.5,4.5,0,0,0-1.4,3.3,4.8,4.8,0,0,0,4.6,4.6Z"/><path d="M21.7,281.2a4.5,4.5,0,0,0,1.4-3.2,4.5,4.5,0,0,0-1.4-3.3,4.5,4.5,0,0,0-3.2-1.4,4.8,4.8,0,0,0-4.7,4.7,4.5,4.5,0,0,0,1.4,3.2,4.5,4.5,0,0,0,3.3,1.4A4.5,4.5,0,0,0,21.7,281.2Z"/><path d="M82.4,267.6a4.8,4.8,0,1,0-3.3,1.3A4.4,4.4,0,0,0,82.4,267.6Z"/><path d="M156.4,245.3v-.4a15.5,15.5,0,0,0-1-5.2,14,14,0,0,0-4.8-6.6,13.7,13.7,0,0,0-8.7-2.8h-.1c-4.5.1-7.7,1.7-9.6,4.7s-2.1,5.2-2.1,9v1a40.7,40.7,0,0,0,.3,4.6H97.7c-1.4-.8-3.6-3.1-6.6-7-4.2-5.6-7.8-9.2-10.8-10.9a16.6,16.6,0,0,0-7.9-2,27.5,27.5,0,0,0-10.8,2.7l4.1,6a14.8,14.8,0,0,1,5.7-1.4,9.2,9.2,0,0,1,5.3,1.6c1.9,1.2,4.4,3.7,7.4,7.7l2.6,3.3H26.1v6.9h8.3a10.9,10.9,0,0,1-1.6,3.5,9.2,9.2,0,0,1-4.7,3.4,16.3,16.3,0,0,1-4.5.8h-.8a14.6,14.6,0,0,1-6.2-1.3,9.6,9.6,0,0,1-4.8-5.6,19.3,19.3,0,0,1-.7-4.4v-5.6a22.9,22.9,0,0,1,1.1-5.8L4,240a37.8,37.8,0,0,0-1.2,7v6.2a26,26,0,0,0,1,5.8,16.7,16.7,0,0,0,8.4,9.8,23.8,23.8,0,0,0,10.5,2.3h1.2a23.6,23.6,0,0,0,7.2-1.3,16.9,16.9,0,0,0,8.9-6.4,16,16,0,0,0,2.8-6.9h91.9l9,1.1h.6c5.8,0,9.6-2.5,11.4-7.6A14.5,14.5,0,0,0,156.4,245.3Zm-8.3.1a8,8,0,0,1-.4,2.7,3.5,3.5,0,0,1-3.2,2.6l-5.7-.7a34.4,34.4,0,0,1-.4-5.1v-.7c0-4.6,1.2-6.9,3.7-7s4.2,1.5,5.4,4.6a9.1,9.1,0,0,1,.6,3.2Z"/><path d="M204.7,259.7a4.6,4.6,0,1,0,3.3,7.9,4.8,4.8,0,0,0,0-6.6A4.4,4.4,0,0,0,204.7,259.7Z"/><path d="M218.3,256.5h4.8a10.7,10.7,0,0,0,7.1-2.4,7.5,7.5,0,0,0,3-5.9V219.4l-4.7.5-8.4.9,1,6.8,3.8-.4v21a1,1,0,0,1-.6.9,1.7,1.7,0,0,1-1.2.5H210.8a1.9,1.9,0,0,1-1.3-.5,1.3,1.3,0,0,1-.5-.6V231.6h-8.3v16h0v.9a1.3,1.3,0,0,1-.5.6,1.8,1.8,0,0,1-1.2.5H178.6c-2-.2-3-1.7-3-4.7V231.6h-8.3v16h0v4.8a12.1,12.1,0,0,1-2,6.3,8.6,8.6,0,0,1-4.4,3.5l-2.6.7-2.6.2h-1V270h1a30,30,0,0,0,4.3-.3,28.3,28.3,0,0,0,4.4-1.2,17.6,17.6,0,0,0,8.4-6.4,15.9,15.9,0,0,0,2.5-6.2c.3.4,1.4.6,3.2.6H199a11,11,0,0,0,5.9-1.5,10.5,10.5,0,0,0,5.9,1.5h7.5Z"/><polygon points="240.2 256.5 248.5 256.5 248.5 218.2 243.9 218.7 235.4 219.6 236.5 226.4 240.2 226 240.2 256.5"/><path d="M295.7,219.5a4.4,4.4,0,0,0-1.3,3.2,4.6,4.6,0,1,0,9.2,0,4.4,4.4,0,0,0-1.3-3.2,4.6,4.6,0,0,0-6.6,0Z"/><path d="M284.9,219.5a4.5,4.5,0,0,0-1.4,3.2,4.5,4.5,0,0,0,1.4,3.3,4.2,4.2,0,0,0,3.2,1.3,4.4,4.4,0,0,0,4.6-4.6,4.4,4.4,0,0,0-1.3-3.2,4.5,4.5,0,0,0-3.3-1.4A4.3,4.3,0,0,0,284.9,219.5Z"/><path d="M329,260a4.4,4.4,0,0,0-4.6,4.6,4.4,4.4,0,0,0,1.3,3.2,4.6,4.6,0,0,0,6.6,0,4.8,4.8,0,0,0,1.3-3.2,4.9,4.9,0,0,0-1.3-3.3A4.4,4.4,0,0,0,329,260Z"/><path d="M314.8,261.3a4.4,4.4,0,0,0-1.3,3.3,4.4,4.4,0,0,0,1.3,3.2,4.5,4.5,0,0,0,3.3,1.4,4.7,4.7,0,0,0,3.3-1.4,4.4,4.4,0,0,0,1.3-3.2,4.4,4.4,0,0,0-1.3-3.3,4.6,4.6,0,0,0-3.3-1.3A4.4,4.4,0,0,0,314.8,261.3Z"/><path d="M325.9,256.5c3.5,0,5.8-.3,7-1s3.4-3.5,3.5-7.2c.1-1.1.1-2.1.1-3a54.7,54.7,0,0,0-.5-7.6,21.1,21.1,0,0,0-3.4-9l-7.3,3.3a14.9,14.9,0,0,1,2.4,6.6,33.3,33.3,0,0,1,.5,6.7,27.2,27.2,0,0,1-.1,2.8c0,.7-.2,1.1-.6,1.3l-1.8.2H308.5v-.3a34.2,34.2,0,0,0-1.3-10.7c-2.1-5.9-6.2-8.9-12.6-9h-.1a12.8,12.8,0,0,0-7.8,2.3,12,12,0,0,0-4.2,5.8,14.3,14.3,0,0,0-.9,5,14.6,14.6,0,0,0,1,5.2A13,13,0,0,0,287,254a12.2,12.2,0,0,0,6.7,2.4h5.6a9.5,9.5,0,0,1-4.5,5.3,17.4,17.4,0,0,1-6,1.3H288a12.8,12.8,0,0,1-6.1-1.3,8.8,8.8,0,0,1-4.7-5.6,15,15,0,0,1-.8-4.4v-5.6a35.1,35.1,0,0,1,1-5.8l-8.1-1.5a37.8,37.8,0,0,0-1.2,7v6.2a26.9,26.9,0,0,0,1,5.9,16.3,16.3,0,0,0,8.5,9.7A23.1,23.1,0,0,0,288,270h1.2a27.1,27.1,0,0,0,7.2-1.3,14.9,14.9,0,0,0,2.6-1,16.3,16.3,0,0,0,8.5-9.7l.4-1.5h18Zm-25.7-6.9h-5c-2.2,0-3.8-1.3-4.7-3.7a12,12,0,0,1-.6-3.2,7.3,7.3,0,0,1,.6-3c.7-2.2,2.1-3.3,4-3.3s3.8,1.5,4.7,4.1a27.9,27.9,0,0,1,1,8.7Z"/><path d="M366.6,258c.2-.7.4-1.2.5-1.5h74.6l.2-3.3c0-.9.1-1.7.1-2.5q0-11.4-5.4-17.1a13.6,13.6,0,0,0-8.9-4.4h-1.9a18.4,18.4,0,0,0-8,1.9,16.4,16.4,0,0,0-7.8,7.8V218.2l-4.7.5-8.4.9,1.1,6.8,3.7-.4v23.6h-34v-.3a33.8,33.8,0,0,0-1.4-10.7c-2-5.9-6.2-8.9-12.5-9h-.1a12.4,12.4,0,0,0-7.8,2.3,11.4,11.4,0,0,0-4.2,5.8,13,13,0,0,0-.9,4.9h0a14.6,14.6,0,0,0,.9,5.2,14,14,0,0,0,4.5,6.1,13.2,13.2,0,0,0,8.1,2.5h4.2a9.3,9.3,0,0,1-4.6,5.3,13.1,13.1,0,0,1-6.1,1.3h-.9a18.5,18.5,0,0,1-5-1l-3.2,6.4a27.6,27.6,0,0,0,7.9,1.5h1.2a23.7,23.7,0,0,0,10.4-2.3A15.8,15.8,0,0,0,366.6,258Zm55.3-21a9.4,9.4,0,0,1,4-1h.7a5.6,5.6,0,0,1,3.4,1.9c2.4,2.4,3.6,6.3,3.7,11.7h-23C413.3,243.5,417,239.3,421.9,237Zm-72.2,8.9a9.1,9.1,0,0,1-.6-3.2,9.4,9.4,0,0,1,.5-3c.8-2.2,2.1-3.3,4.1-3.3s3.7,1.5,4.6,4.1a27.4,27.4,0,0,1,1.1,8.7v.4h-5.1C352.1,249.6,350.6,248.3,349.7,245.9Z"/><path d="M689.4,233.1a13.5,13.5,0,0,0-8.7-2.8h-.1c-4.5.1-7.7,1.7-9.6,4.7s-2.1,5.2-2.1,9v1a40.7,40.7,0,0,0,.3,4.6H642.3a19.9,19.9,0,0,0,2.7-3.8,16.2,16.2,0,0,0,2.1-5.3c0-.5.1-1,.1-1.6a8.4,8.4,0,0,0-1.1-4.1c-2.2-3.5-6.8-5.2-13.7-5.2h-.3l-13.8,1.1-3.2.2-.5,2.6a8.2,8.2,0,0,0-.2,2.2c0,4.1,1.9,8.6,5.9,13.4l.4.6H595.5a3.8,3.8,0,0,0,.1-1.3c0-1.1.1-2.1.1-3a54.7,54.7,0,0,0-.5-7.6,22.5,22.5,0,0,0-3.4-9l-7.4,3.3a14.9,14.9,0,0,1,2.5,6.6,45.8,45.8,0,0,1,.4,6.9v2.6c0,.7-.2,1.1-.6,1.3l-1.8.2h-3a3.3,3.3,0,0,1-2.4-1.5,7.6,7.6,0,0,1-1.6-5.1V230.2h-8.4V243a12.4,12.4,0,0,0,1.5,6.6h-6.6a3.3,3.3,0,0,1-2.4-1.5,7.7,7.7,0,0,1-1.7-5.1V230.2H552V243a12.4,12.4,0,0,0,1.5,6.6H541.7c-.1-5.5-1.3-9.4-3.7-11.6s-7.7-3.7-15.6-3.9h-3.2l15.2-11.4-5.8-5-23.5,17.7L508,241h14.1c4.3.1,7.3.8,8.8,1.9s2.4,3.5,2.5,6.7H476.1c-2-.2-3-1.7-3-4.7V231.6h-8.3v16h0v4.8a13,13,0,0,1-2,6.3,8.4,8.4,0,0,1-4.5,3.5l-2.5.7-2.6.2h-1V270h1a30,30,0,0,0,4.3-.3,31.7,31.7,0,0,0,4.4-1.2,16.9,16.9,0,0,0,8.3-6.4,16.2,16.2,0,0,0,2.6-6.2c.3.4,1.4.6,3.1.6H673.5l9,1.1h.6c5.8,0,9.6-2.5,11.4-7.6a14.5,14.5,0,0,0,.7-4.7v-.4a15.5,15.5,0,0,0-1-5.2A14,14,0,0,0,689.4,233.1Zm-50.6,6.6a8.1,8.1,0,0,1-1.2,3.1,24.8,24.8,0,0,1-3.5,4.5,9.3,9.3,0,0,1-3.1,2.2,58,58,0,0,1-3.9-4.3c-2.6-3.3-4.1-5.9-4.3-8l9.7-.8c3.5.1,5.5.6,6.1,1.6a1.5,1.5,0,0,1,.3,1C638.9,239.2,638.8,239.4,638.8,239.7Zm48.1,5.7a8,8,0,0,1-.4,2.7,3.5,3.5,0,0,1-3.2,2.6l-5.7-.7a34.4,34.4,0,0,1-.4-5.1v-.7c0-4.6,1.2-6.9,3.7-7s4.2,1.5,5.4,4.6a9.1,9.1,0,0,1,.6,3.2Z"/><polygon points="0.6 297.8 9.6 297.8 9.6 321.4 15.8 321.4 15.8 297.8 24.8 297.8 24.8 292.1 0.6 292.1 0.6 297.8"/><path d="M40.2,311.5c0,3.1-1.7,4.8-4.2,4.8s-4.1-1.7-4.1-4.8V299h-6v14.5c0,5.1,2.8,8.4,7.6,8.4s5.2-1.8,6.7-3.7v3.2h6.1V299H40.2Z"/><polygon points="74.2 313 69.8 299 64.6 299 60.2 313 56.4 299 50.2 299 57.1 321.6 62.6 321.6 67.1 307.5 71.6 321.6 77.1 321.6 84.1 299 78 299 74.2 313"/><path d="M96.9,298.8a19.7,19.7,0,0,0-8.7,1.8l1.5,4.7A16.5,16.5,0,0,1,96,304c3.2,0,4.9,1.5,4.9,4.2v.5a14.9,14.9,0,0,0-5.6-.9c-5.3,0-9,2.2-9,7.1h0c0,4.4,3.5,6.9,7.8,6.9a8.7,8.7,0,0,0,6.8-3v2.5h5.9v-13c0-3-.8-5.5-2.4-7.1S100.3,298.8,96.9,298.8Zm4.1,14.7c0,2.4-2.1,4.1-5.1,4.1s-3.7-1.1-3.7-2.9h0c0-2,1.7-3.2,4.5-3.2a10.6,10.6,0,0,1,4.3.9Z"/><rect x="112.9" y="299" width="6.1" height="22.37"/><rect x="112.7" y="290.9" width="6.4" height="5.47"/><path d="M141.6,302.1a8.8,8.8,0,0,0-7.1-3.5c-5.3,0-10.3,4.1-10.3,11.6h0c0,7.4,5,11.6,10.3,11.6a8.6,8.6,0,0,0,7.1-3.8v10h6.1V299h-6.1Zm0,8.2c0,3.8-2.5,6.3-5.6,6.3s-5.6-2.5-5.6-6.3h0c0-3.9,2.5-6.4,5.6-6.4s5.6,2.6,5.6,6.4Z"/><path d="M179.2,292.1H167.4v29.3h6.1v-8.9h5.1c6.5,0,11.8-3.5,11.8-10.2h0C190.4,296.2,186.2,292.1,179.2,292.1Zm5,10.3c0,2.6-2,4.6-5.4,4.6h-5.3v-9.3h5.2c3.3,0,5.5,1.6,5.5,4.6Z"/><path d="M200.8,303.7V299h-6.1v22.4h6.1v-8.3c0-5.5,2.7-8.1,7-8.1h.3v-6.4C204.3,298.5,202.1,300.5,200.8,303.7Z"/><path d="M223.2,298.6a11.7,11.7,0,0,0-12.1,11.7h0A11.6,11.6,0,0,0,223,321.9c7,0,12.2-5.2,12.2-11.6h0A11.7,11.7,0,0,0,223.2,298.6Zm5.9,11.7c0,3.5-2.2,6.4-5.9,6.4a6.1,6.1,0,0,1-6.1-6.4h0c0-3.4,2.2-6.3,5.9-6.3a6.1,6.1,0,0,1,6.1,6.4Z"/><path d="M256.3,302.1a9.1,9.1,0,0,0-7.3-3.5c-5.2,0-10,3.8-10,10.5h0c0,6.7,4.7,10.5,10,10.5,3.4,0,5.5-1.5,7.4-3.7v1.2c0,4.1-2.2,6.2-6.6,6.2a14.9,14.9,0,0,1-7.6-2.1l-2.1,4.6a21.3,21.3,0,0,0,9.9,2.4c4.3,0,7.5-1,9.5-3s2.9-4.8,2.9-8.7V299h-6.1Zm.1,7a5.4,5.4,0,0,1-5.7,5.4,5.3,5.3,0,0,1-5.6-5.4h0a5.3,5.3,0,0,1,5.6-5.4,5.4,5.4,0,0,1,5.7,5.4Z"/><path d="M274.7,303.7V299h-6.1v22.4h6.1v-8.3c0-5.5,2.7-8.1,7-8.1h.3v-6.4C278.2,298.5,276.1,300.5,274.7,303.7Z"/><path d="M294.9,298.8a20,20,0,0,0-8.7,1.8l1.6,4.7A15.6,15.6,0,0,1,294,304c3.3,0,5,1.5,5,4.2v.5a15.7,15.7,0,0,0-5.6-.9c-5.3,0-9.1,2.2-9.1,7.1h0c0,4.4,3.6,6.9,7.8,6.9a8.7,8.7,0,0,0,6.8-3v2.5h5.9v-13c0-3-.7-5.5-2.4-7.1S298.3,298.8,294.9,298.8Zm4.1,14.7c0,2.4-2.1,4.1-5.1,4.1s-3.7-1.1-3.7-2.9h0c0-2,1.8-3.2,4.6-3.2a10.4,10.4,0,0,1,4.2.9Z"/><path d="M337.4,298.6a9,9,0,0,0-7.4,3.7,6.8,6.8,0,0,0-6.4-3.7,8,8,0,0,0-6.6,3.7V299h-6.1v22.4H317V308.9c0-3.1,1.6-4.8,4-4.8s3.9,1.7,3.9,4.8v12.5H331V308.9c0-3.1,1.6-4.8,4-4.8s3.9,1.7,3.9,4.8v12.5H345V306.9C345,301.5,342.1,298.6,337.4,298.6Z"/><path d="M377.7,298.6a9,9,0,0,0-7.4,3.7,6.8,6.8,0,0,0-6.4-3.7c-3.3,0-5.2,1.8-6.6,3.7V299h-6.1v22.4h6.1V308.9c0-3.1,1.5-4.8,4-4.8s3.9,1.7,3.9,4.8v12.5h6.1V308.9c0-3.1,1.5-4.8,4-4.8s3.9,1.7,3.9,4.8v12.5h6.1V306.9C385.3,301.5,382.4,298.6,377.7,298.6Z"/><rect x="391.5" y="299" width="6.1" height="22.37"/><rect x="391.3" y="290.9" width="6.4" height="5.47"/><path d="M416.7,298.6c-3.3,0-5.2,1.8-6.7,3.7V299h-6.1v22.4H410V308.9c0-3.1,1.7-4.8,4.2-4.8s4.1,1.7,4.1,4.8v12.5h6.1V307C424.4,301.8,421.5,298.6,416.7,298.6Z"/><path d="M446.6,302.1a9.3,9.3,0,0,0-7.4-3.5c-5.1,0-9.9,3.8-9.9,10.5h0c0,6.7,4.7,10.5,9.9,10.5a8.9,8.9,0,0,0,7.4-3.7v1.2c0,4.1-2.1,6.2-6.5,6.2a14.7,14.7,0,0,1-7.6-2.1l-2.1,4.6a21.3,21.3,0,0,0,9.9,2.4c4.3,0,7.5-1,9.5-3s2.9-4.8,2.9-8.7V299h-6.1Zm0,7a5.4,5.4,0,0,1-5.6,5.4,5.3,5.3,0,0,1-5.6-5.4h0a5.3,5.3,0,0,1,5.6-5.4,5.4,5.4,0,0,1,5.6,5.4Z"/><path d="M491.6,306.1a6.8,6.8,0,0,0,3.9-6.3h0a6.6,6.6,0,0,0-2-5c-1.7-1.7-4.3-2.6-7.7-2.6H472.4v29.3h13.8c6.6,0,11-2.7,11-8h0C497.2,309.3,495,307.4,491.6,306.1Zm-13.2-8.6H485c2.8,0,4.4,1.2,4.4,3.2h0c0,2.3-1.9,3.3-4.8,3.3h-6.2ZM491,312.6c0,2.3-1.8,3.4-4.8,3.4h-7.8v-6.8H486c3.4,0,5,1.3,5,3.4Z"/><path d="M513.4,298.6a11.8,11.8,0,0,0-12.2,11.7h0a11.6,11.6,0,0,0,12,11.6c7,0,12.1-5.2,12.1-11.6h0A11.6,11.6,0,0,0,513.4,298.6Zm5.9,11.7c0,3.5-2.2,6.4-5.9,6.4a6.1,6.1,0,0,1-6.1-6.4h0c0-3.4,2.2-6.3,5.9-6.3a6.1,6.1,0,0,1,6.1,6.4Z"/><path d="M541.2,298.6a11.8,11.8,0,0,0-12.1,11.7h0c0,6.5,5.1,11.6,12,11.6s12.1-5.2,12.1-11.6h0A11.6,11.6,0,0,0,541.2,298.6Zm6,11.7c0,3.5-2.3,6.4-6,6.4a6.1,6.1,0,0,1-6-6.4h0c0-3.4,2.2-6.3,5.9-6.3a6.1,6.1,0,0,1,6.1,6.4Z"/><path d="M565.1,293.2H559V299h-2.7v5.3H559v10.8c0,5.1,2.6,6.7,6.5,6.7a8.9,8.9,0,0,0,4.9-1.3v-4.9a6.6,6.6,0,0,1-3.2.8c-1.4,0-2.1-.7-2.1-2.3v-9.8h5.4V299h-5.4Z"/><path d="M586,316.7c-3.5,0-5.8-2.9-5.8-6.4h0c0-3.4,2.3-6.3,5.6-6.3s3.7,1,5.2,2.5l3.8-4a11.3,11.3,0,0,0-9-3.8,11.5,11.5,0,0,0-11.7,11.7h0a11.4,11.4,0,0,0,11.7,11.6,11.3,11.3,0,0,0,9.1-4.1l-3.6-3.6C589.7,315.7,588.2,316.7,586,316.7Z"/><path d="M608.7,298.8a19.3,19.3,0,0,0-8.6,1.8l1.5,4.7a16,16,0,0,1,6.2-1.3c3.3,0,5,1.5,5,4.2v.5a15.3,15.3,0,0,0-5.6-.9c-5.3,0-9.1,2.2-9.1,7.1h0c0,4.4,3.6,6.9,7.8,6.9a9.1,9.1,0,0,0,6.9-3v2.5h5.9v-13c0-3-.8-5.5-2.4-7.1S612.1,298.8,608.7,298.8Zm4.2,14.7c0,2.4-2.1,4.1-5.2,4.1s-3.6-1.1-3.6-2.9h0c0-2,1.7-3.2,4.5-3.2a10.9,10.9,0,0,1,4.3.9Z"/><path d="M651.2,298.6a9,9,0,0,0-7.4,3.7,6.8,6.8,0,0,0-6.3-3.7c-3.3,0-5.2,1.8-6.7,3.7V299h-6.1v22.4h6.1V308.9c0-3.1,1.6-4.8,4-4.8s3.9,1.7,3.9,4.8v12.5h6.1V308.9c0-3.1,1.6-4.8,4-4.8s3.9,1.7,3.9,4.8v12.5h6.1V306.9C658.8,301.5,656,298.6,651.2,298.6Z"/><path d="M678.2,298.6a8.3,8.3,0,0,0-7.1,3.8V299H665v29.1h6.1v-9.7a8.9,8.9,0,0,0,7.1,3.5c5.3,0,10.2-4.2,10.2-11.6h0C688.4,302.7,683.4,298.6,678.2,298.6Zm4.1,11.7c0,3.9-2.6,6.3-5.6,6.3s-5.7-2.5-5.7-6.3h0c0-3.8,2.6-6.4,5.7-6.4s5.6,2.6,5.6,6.4Z"/><polygon class="cls-1" points="700 97 628.3 177.2 582.6 177.2 654.3 97 700 97 700 97"/><polygon class="cls-2" points="582.6 177.2 654.3 97 700 97 582.6 177.2 582.6 177.2"/><polygon class="cls-3" points="646.4 37 700 97 654.3 97 600.7 37 646.4 37 646.4 37"/><polygon class="cls-4" points="654.3 97 600.7 37 646.4 37 654.3 97 654.3 97"/><polygon class="cls-5" points="510 80.2 581.8 0 627.5 0 555.7 80.2 510 80.2 510 80.2"/><polygon class="cls-6" points="627.5 0 555.7 80.2 510 80.2 627.5 0 627.5 0"/><polygon class="cls-7" points="563.6 140.1 510 80.2 555.7 80.2 609.4 140.1 563.6 140.1 563.6 140.1"/><polygon class="cls-8" points="555.7 80.2 609.4 140.1 563.6 140.1 555.7 80.2 555.7 80.2"/><path class="cls-9" d="M71,45.1a9.9,9.9,0,0,0,9.8-10,10,10,0,1,0-20,0A10.1,10.1,0,0,0,71,45.1Z"/><circle class="cls-9" cx="95.3" cy="35.1" r="10"/><circle class="cls-9" cx="176" cy="159.3" r="10"/><path class="cls-9" d="M151.7,149.3a10.1,10.1,0,1,0,9.8,10A9.8,9.8,0,0,0,151.7,149.3Z"/><path class="cls-9" d="M181.1,59.5H166.2v57.7c-6.1,2.6-15.9,4.7-26.6,4.7h-26V69.7c-11.8-5.9-23-8.9-33.9-8.9-25.2,0-42.4,15-42.4,38.1s16.9,37.9,44.2,37.9H98.7V154a91.6,91.6,0,0,1-39.2,8.3c-29.4,0-44.9-12.8-44.9-36.7a69.2,69.2,0,0,1,2.3-17.5L3.3,105.6A78.3,78.3,0,0,0,0,128.5c0,29.6,20.8,48.7,58.1,48.7,22.4,0,42.3-6.4,55.5-15.2V136.8h27.1a96.8,96.8,0,0,0,21.8-2.6,71,71,0,0,0,18.6-6.7ZM98.7,121.9H79.3c-15.8,0-27.3-8.6-27.3-23.5S63.5,74.9,79.1,74.9a45,45,0,0,1,19.6,4.7Z"/><path class="cls-9" d="M446.4,54.6c-19.2.4-49.5,3.9-94.2,32.3V28.2H337.3v87.4S398.8,66.9,443.7,70c17.7,1.3,26,12.6,26,30.3v21.6H283.3V69.7c-11.8-5.9-23.1-8.9-33.9-8.9-25.2,0-42.4,15-42.4,38.1s16.9,37.9,44.2,37.9h17c-.8,18-10.3,26.3-29.7,26.3a75.4,75.4,0,0,1-25.4-4.6l-2.5,14a82.1,82.1,0,0,0,27.4,4.7c26.3,0,43.2-12.9,45.1-40.4H484.6V98.1C484.6,71,469.8,54,446.4,54.6Zm-178,67.3H249c-15.9,0-27.3-8.6-27.3-23.5s11.4-23.5,27.1-23.5a45,45,0,0,1,19.6,4.7Z"/></g></g></svg>